<svg xmlns="http://www.w3.org/2000/svg" xmlns:xlink="http://www.w3.org/1999/xlink" version="1.1" id="Layer_1" x="0px" y="0px" style="enable-background:new 0 0 612 792;" xml:space="preserve" viewBox="180.33 80.44 262.44 262.44">
<style type="text/css">
	.st0{fill:#FFFFFF;}
	.st1{fill:#529736;}
	.st2{fill:none;stroke:#AC8B2F;stroke-width:4.9181;stroke-miterlimit:10;}
	.st3{fill:#AC8B2F;}
</style>
<circle class="st0" cx="311.55" cy="211.66" r="131.22"/>
<path class="st1" d="M438.96,211.66c0,70.32-57.01,127.33-127.33,127.33S184.3,281.98,184.3,211.66S241.31,84.34,311.63,84.34  S438.96,141.34,438.96,211.66z M311.63,124.83c-47.96,0-86.84,38.88-86.84,86.84s38.88,86.84,86.84,86.84s86.84-38.88,86.84-86.84  S359.59,124.83,311.63,124.83z"/>
<g>
	<g>
		<path class="st2" d="M380.39,178.51c-12.07-25.93-38.35-43.9-68.84-43.9c-30.48,0-56.77,17.97-68.84,43.9L380.39,178.51z"/>
		<path class="st2" d="M277.14,178.52c6.03-25.93,19.18-43.9,34.42-43.9c15.28,0,28.44,18.06,34.46,44.08"/>
		<line class="st2" x1="311.55" y1="134.61" x2="311.55" y2="178.52"/>
		<line class="st2" x1="259.84" y1="154.97" x2="363.27" y2="154.97"/>
	</g>
	<g>
		<path class="st2" d="M380.39,244.31c-12.07,25.93-38.35,43.9-68.84,43.9c-30.48,0-56.77-17.97-68.84-43.9L380.39,244.31z"/>
		<path class="st2" d="M277.14,244.31c6.03,25.93,19.18,43.9,34.42,43.9c15.28,0,28.44-18.06,34.46-44.08"/>
		<line class="st2" x1="311.55" y1="288.22" x2="311.55" y2="244.31"/>
		<line class="st2" x1="259.84" y1="267.86" x2="363.27" y2="267.86"/>
	</g>
</g>
<g>
	<path class="st0" d="M201.54,183.27l1.24,1.8c-0.98,0.79-1.51,1.51-1.76,2.72c-0.42,2.02,0.75,4.06,4.58,4.85   c3.89,0.8,5.59-0.05,6.04-2.27c0.17-0.8,0.16-1.62-0.09-2.38l-3.7-0.76l-0.44,2.14l-2.08-0.13l1.05-5.1l6.95,1.43   c0.58,1.56,0.77,3.35,0.37,5.29c-0.81,3.95-3.82,5.65-8.7,4.64c-4.81-0.99-6.79-4.51-6.07-8.01   C199.35,185.47,200.27,184.25,201.54,183.27z"/>
	<path class="st0" d="M215.82,181.52l-13.78-4.54l0.87-2.65l13.78,4.54L215.82,181.52z"/>
	<path class="st0" d="M216.17,170.85l2.68,2.22l-1.2,2.62l-11.32-10.14l1.42-3.11l15.07,1.94l-1.22,2.67l-3.43-0.57L216.17,170.85z    M208.95,164.92l5.54,4.56l1.54-3.36L208.95,164.92z"/>
	<path class="st0" d="M218.1,146.77l0.65,2.09c-1.02,0.33-1.78,0.87-2.32,1.72c-1.06,1.69-0.64,3.79,2.69,5.87   c3.24,2.03,5.36,1.57,6.46-0.19c0.66-1.05,0.62-2.09,0.53-3.14l2.12-0.21c0.3,1.23,0.23,2.97-0.82,4.64   c-1.99,3.19-5.65,4-9.83,1.38c-4.13-2.58-4.92-6.35-3.05-9.34C215.54,147.97,216.64,147.25,218.1,146.77z"/>
	<path class="st0" d="M232.93,129.85l0.18,2.12c-1.33,0.12-2.3,0.59-3.13,1.45c-0.9,0.94-1.13,2.03-0.31,2.81   c0.76,0.73,1.48,0.64,3.7-0.59c2.33-1.28,4.31-1.83,6.28,0.05c1.88,1.8,1.81,4.55-0.59,7.05c-1.6,1.67-3.38,2.35-5.05,2.4   l-0.17-2.19c1.38-0.08,2.59-0.55,3.63-1.64c1.07-1.12,1.3-2.45,0.28-3.42c-0.88-0.84-1.69-0.78-3.76,0.38   c-2.79,1.55-4.58,1.66-6.17,0.14c-1.74-1.67-1.46-4.27,0.51-6.34C229.8,130.54,231.23,129.96,232.93,129.85z"/>
	<path class="st0" d="M241.86,123.16l7.73,9.57l-2.17,1.76l-7.73-9.57l-3.04,2.46l-1.39-1.71l8.38-6.77l1.16,1.9L241.86,123.16z"/>
	<path class="st0" d="M254.95,121.83l3.01,4.97l-2.37,1.44l-7.52-12.41l3.7-2.24c3.25-1.97,5.64-1.8,7.13,0.67   c1.02,1.69,0.81,3.19-0.48,4.88l6.53,3.44l-2.73,1.65l-5.76-3.31L254.95,121.83z M255.39,119.23c1.47-0.89,1.94-1.98,1.04-3.48   c-0.82-1.35-1.94-1.45-3.66-0.41l-1.28,0.77l2.43,4L255.39,119.23z"/>
	<path class="st0" d="M268.61,117.21l0.49,3.45l-2.65,1.13l-1.55-15.12l3.15-1.35l9.84,11.58l-2.7,1.16l-2.15-2.74L268.61,117.21z    M267.27,107.97l1.02,7.1l3.4-1.45L267.27,107.97z"/>
	<path class="st0" d="M281.68,103.01l3.41,11.83l-2.69,0.77l-3.41-11.83l-3.75,1.08l-0.61-2.12l10.36-2.98l0.33,2.2L281.68,103.01z"/>
	<path class="st0" d="M293.24,100.35l0.62,4.01l4.61-0.71l0.31,2.03l-4.61,0.71l0.65,4.21l5.67-0.87l0.32,2.05l-8.4,1.29l-2.2-14.34   l8.32-1.28l0.02,2.08L293.24,100.35z"/>
	<path class="st0" d="M315.32,98.13l-1.49,1.6c-0.98-0.78-1.8-1.15-3.04-1.13c-2.06,0.03-3.8,1.61-3.73,5.52   c0.06,3.97,1.26,5.44,3.53,5.4c0.82-0.01,1.61-0.19,2.3-0.6l-0.06-3.78l-2.18,0.03l-0.33-2.05l5.21-0.08l0.11,7.1   c-1.39,0.9-3.11,1.48-5.08,1.51c-4.03,0.06-6.34-2.5-6.42-7.48c-0.08-4.91,2.92-7.61,6.49-7.66   C312.69,96.47,314.09,97.1,315.32,98.13z"/>
	<path class="st0" d="M320.11,111.68l1.42-14.45l2.78,0.27l-1.42,14.45L320.11,111.68z"/>
	<path class="st0" d="M340.28,101.56l-1.74,1.33c-0.66-0.85-1.43-1.37-2.42-1.58c-1.95-0.41-3.77,0.71-4.58,4.56   c-0.78,3.74,0.38,5.57,2.42,5.99c1.21,0.25,2.18-0.15,3.13-0.59l0.93,1.91c-1.05,0.7-2.7,1.24-4.64,0.83   c-3.68-0.77-5.7-3.91-4.7-8.74c0.99-4.77,4.25-6.81,7.71-6.09C338.27,99.58,339.33,100.35,340.28,101.56z"/>
	<path class="st0" d="M361.14,113.04c-1.35,3.05-4.16,3.44-7.15,2.12l-1.56-0.69l-2.04,4.63l-2.54-1.12l5.85-13.27l3.92,1.73   C360.97,107.91,362.4,110.17,361.14,113.04z M358.49,111.87c0.74-1.67,0.02-2.81-1.71-3.57l-1.36-0.6l-2.15,4.88l1.36,0.6   C356.32,113.92,357.63,113.81,358.49,111.87z"/>
	<path class="st0" d="M369.06,126.53l-1.45,1.77l-7.07-4.3l7.54-12.4l2.37,1.44l-6.36,10.46L369.06,126.53z"/>
	<path class="st0" d="M374.52,129.23l-2.81,2.05l-2.24-1.8l12.61-8.49l2.67,2.14l-5.58,14.13l-2.29-1.84l1.4-3.19L374.52,129.23z    M382.04,123.69l-5.78,4.25l2.88,2.31L382.04,123.69z"/>
	<path class="st0" d="M386.31,144.72l5.22-11.63c-0.84,0.98-2.04,2.41-4.01,4.23l-4.34,4.03l-1.71-1.85l10.64-9.87l2.38,2.57   l-5.18,11.71c0.5-0.64,1.87-2.25,3.38-3.65l4.99-4.63l1.71,1.85l-10.64,9.87L386.31,144.72z"/>
	<path class="st0" d="M395.8,157.12l6.95-10.69c-0.98,0.84-2.38,2.06-4.61,3.56l-4.91,3.31l-1.41-2.09l12.03-8.11l1.96,2.91   l-6.92,10.77c0.59-0.55,2.19-1.93,3.9-3.08l5.64-3.8l1.41,2.09l-12.03,8.11L395.8,157.12z"/>
	<path class="st0" d="M400.2,164.61l12.91-6.63l1.28,2.48l-12.91,6.63L400.2,164.61z"/>
	<path class="st0" d="M406.23,178.31l9.27-8.76c-1.15,0.58-2.8,1.45-5.32,2.38l-5.55,2.07l-0.88-2.36l13.6-5.06l1.22,3.29   l-9.26,8.85c0.7-0.4,2.58-1.37,4.51-2.08l6.38-2.37l0.88,2.36l-13.6,5.06L406.23,178.31z"/>
	<path class="st0" d="M423.79,194.09l-1.85-1.16c0.59-1.11,0.79-1.99,0.54-3.2c-0.41-2.02-2.29-3.43-6.12-2.64   c-3.89,0.8-5.11,2.25-4.65,4.47c0.17,0.8,0.49,1.55,1.02,2.15l3.7-0.76L416,190.8l1.96-0.7l1.05,5.1l-6.95,1.43   c-1.15-1.2-2.03-2.78-2.43-4.71c-0.81-3.95,1.28-6.69,6.16-7.7c4.81-0.99,8.02,1.46,8.74,4.96   C424.94,191.2,424.58,192.69,423.79,194.09z"/>
</g>
<g>
	<path class="st0" d="M216.12,256.08c-3.1,1.24-5.38-0.44-6.6-3.48l-0.63-1.58l-4.7,1.89l-1.03-2.57l13.46-5.41l1.6,3.98   C219.58,252.29,219.03,254.91,216.12,256.08z M215.04,253.39c1.7-0.68,1.98-2,1.28-3.75l-0.56-1.38l-4.95,1.99l0.56,1.38   C212.06,253.34,213.07,254.18,215.04,253.39z"/>
	<path class="st0" d="M222.51,272.62c-4.1,2.47-7.76,1.81-9.77-1.52c-2-3.33-0.96-6.85,3.19-9.35c4.08-2.46,7.77-1.79,9.78,1.54   C227.72,266.61,226.67,270.11,222.51,272.62z M217.44,264.24c-3.35,2.02-3.98,3.94-2.88,5.76c1.12,1.85,3.08,2.14,6.44,0.12   c3.33-2,4.02-3.87,2.89-5.74C222.78,262.52,220.79,262.23,217.44,264.24z"/>
	<path class="st0" d="M227.84,287.29l-1.95,1.2l-5.27-6.37l11.18-9.25l1.77,2.14l-9.43,7.8L227.84,287.29z"/>
	<path class="st0" d="M229.96,292.68l10.17-10.34l1.99,1.96l-10.17,10.34L229.96,292.68z"/>
	<path class="st0" d="M253.09,295.05l-2.15,0.42c-0.22-1.05-0.67-1.86-1.46-2.49c-1.57-1.23-3.7-1.04-6.13,2.05   c-2.36,3-2.14,5.16-0.5,6.45c0.97,0.77,2.01,0.84,3.06,0.86l-0.02,2.13c-1.25,0.16-2.97-0.09-4.52-1.31   c-2.96-2.32-3.37-6.04-0.32-9.92c3.01-3.83,6.84-4.21,9.61-2.03C252.17,292.37,252.78,293.54,253.09,295.05z"/>
	<path class="st0" d="M255.35,311.99l-2.44-1.41l2.74-4.75l0.48-10.15l2.66,1.53l-0.71,7.37l6.03-4.31l2.55,1.47l-8.54,5.47   L255.35,311.99z"/>
	<path class="st0" d="M284.72,311.6c-0.5,1.71-2.03,2.44-3.85,2.96l2.24,3.83c0.66-0.75,1.35-1.7,1.99-2.83l2.04,1.32   c-0.99,1.42-1.98,2.5-2.96,3.31l1.73,2.83l-2.42,0.58l-1.25-2.21c-1.54,0.77-3.14,0.92-4.93,0.39c-2.82-0.83-4.33-2.91-3.64-5.25   c0.5-1.71,1.84-2.54,3.95-3.15c-0.94-1.65-1.33-2.71-0.94-4.04c0.51-1.73,2.28-2.85,4.94-2.07   C284.09,308,285.24,309.81,284.72,311.6z M276.39,317.21c-0.37,1.27,0.38,2.34,1.87,2.78c1.07,0.31,2.01,0.17,2.97-0.29l-2.57-4.5   C277.39,315.62,276.68,316.22,276.39,317.21z M279.17,310.08c-0.25,0.85,0.02,1.56,0.67,2.69c1.27-0.37,2.09-0.85,2.37-1.8   c0.27-0.93-0.15-1.66-1.09-1.94C280.15,308.75,279.43,309.2,279.17,310.08z"/>
	<path class="st0" d="M309.99,324.47l-0.45,2.25l-8.26-0.48l0.83-14.49l2.77,0.16l-0.7,12.22L309.99,324.47z"/>
	<path class="st0" d="M317.91,313.99l0.29,4.04l4.65-0.33l0.15,2.05l-4.65,0.33l0.3,4.25l5.72-0.41l0.15,2.07l-8.48,0.61L315,312.14   l8.4-0.6l-0.15,2.07L317.91,313.99z"/>
	<path class="st0" d="M332.67,321.31l-0.18,3.48l-2.81,0.6l1.37-15.14l3.35-0.72l7.44,13.25l-2.88,0.62l-1.59-3.1L332.67,321.31z    M333.11,311.97l-0.35,7.17l3.62-0.78L333.11,311.97z"/>
	<path class="st0" d="M355.54,310.12c2.1,5.49-0.73,8.13-3.97,9.37l-3.69,1.41l-5.19-13.55l3.33-1.28   C349.6,304.7,353.39,304.51,355.54,310.12z M349.73,317.96l1.27-0.49c2.02-0.77,3.34-2.31,1.81-6.31   c-1.56-4.08-3.59-4.09-5.59-3.32l-1.2,0.46L349.73,317.96z"/>
	<path class="st0" d="M360.9,301.55l1.99,3.53l4.06-2.29l1.01,1.79l-4.06,2.29l2.09,3.71l4.99-2.82l1.02,1.81l-7.41,4.18   l-7.13-12.64l7.34-4.14l0.75,1.94L360.9,301.55z"/>
	<path class="st0" d="M376.57,299.37l3.55,4.61l-2.2,1.69l-8.86-11.49l3.43-2.64c3.01-2.32,5.4-2.41,7.16-0.14   c1.2,1.56,1.16,3.08,0.07,4.9l6.87,2.69l-2.53,1.95l-6.09-2.65L376.57,299.37z M376.72,296.74c1.36-1.05,1.71-2.19,0.64-3.57   c-0.96-1.25-2.09-1.23-3.68,0l-1.18,0.91l2.86,3.71L376.72,296.74z"/>
	<path class="st0" d="M388.14,279.1l0.17,2.12c-1.33,0.11-2.31,0.57-3.14,1.43c-0.91,0.94-1.14,2.02-0.32,2.81   c0.75,0.73,1.48,0.64,3.7-0.57c2.34-1.27,4.32-1.81,6.28,0.09c1.87,1.81,1.78,4.56-0.63,7.05c-1.61,1.66-3.39,2.33-5.07,2.37   l-0.16-2.2c1.38-0.07,2.59-0.53,3.64-1.62c1.08-1.12,1.31-2.44,0.3-3.42c-0.88-0.85-1.69-0.79-3.77,0.36   c-2.8,1.53-4.59,1.63-6.18,0.1c-1.74-1.68-1.44-4.28,0.55-6.34C385,279.78,386.43,279.2,388.14,279.1z"/>
	<path class="st0" d="M398.63,276.42l5.29,3.75l-1.6,2.26l-11.84-8.39l1.6-2.26l4.75,3.36l2.99-4.22l-4.75-3.36l1.62-2.28   l11.84,8.39l-1.62,2.28l-5.29-3.75L398.63,276.42z"/>
	<path class="st0" d="M412.2,267.3l-12.78-6.87l1.32-2.46l12.78,6.87L412.2,267.3z"/>
	<path class="st0" d="M411.3,245.31c3.1,1.24,3.59,4.03,2.38,7.07l-0.63,1.58l4.7,1.88l-1.03,2.57l-13.47-5.38l1.59-3.98   C406.19,245.67,408.4,244.15,411.3,245.31z M410.23,248c-1.7-0.68-2.81,0.08-3.51,1.83l-0.55,1.38l4.95,1.98l0.55-1.38   C412.35,250.09,412.2,248.79,410.23,248z"/>
</g>
<g>
	<path class="st3" d="M277.16,210.97v1.86c0,12.83-8.87,22.69-21.69,22.69s-23.15-11.28-23.15-24.24   c0-13.45,10.57-24.49,23.76-24.49c7.11,0,14.16,3.29,18.65,9.05l-4.01,3.91c-3.28-4.59-8.81-7.63-14.4-7.63   c-10.27,0-18.29,8.49-18.29,18.97c0,9.8,7.9,19.09,17.8,19.09c7.11,0,14.77-6.26,15.01-13.89H259v-5.33H277.16z"/>
	<path class="st3" d="M300.74,196.65c-1.7-2.91-3.89-4.4-7.35-4.4c-3.65,0-7.66,2.54-7.66,6.63c0,3.66,3.52,5.58,6.38,6.7l3.28,1.3   c6.5,2.6,11.36,6.26,11.36,14.07c0,8.49-6.44,14.57-14.64,14.57c-7.41,0-13.19-5.58-14.16-13.08l5.77-1.24   c-0.06,5.15,3.95,8.87,8.87,8.87c4.92,0,8.45-4.22,8.45-9.11c0-5.02-3.95-7.19-7.9-8.87l-3.16-1.36   c-5.23-2.29-9.96-5.33-9.96-11.84c0-7.56,6.56-12.09,13.49-12.09c5.1,0,9.3,2.54,11.79,7.07L300.74,196.65z"/>
	<path class="st3" d="M322.92,234.53h-5.71v-41.41h-10.88v-5.33h27.46v5.33h-10.88V234.53z"/>
	<path class="st3" d="M365.57,234.53h-6.93l-13.49-19.78h-2.37v19.78h-5.71v-46.75H344c4.07,0,8.45,0.06,12.09,2.17   c3.83,2.29,6.02,6.7,6.02,11.16c0,6.7-4.38,12.28-11,13.08L365.57,234.53z M342.78,209.92h1.82c5.83,0,12.15-1.12,12.15-8.56   c0-7.32-6.81-8.37-12.46-8.37h-1.52V209.92z"/>
	<path class="st3" d="M378.75,234.53h-5.71v-41.41h-10.88v-5.33h27.46v5.33h-10.88V234.53z"/>
</g>
</svg>