<?xml version="1.0" encoding="UTF-8"?>
<svg viewBox="0 0 119 108" version="1.1" xmlns="http://www.w3.org/2000/svg" xmlns:xlink="http://www.w3.org/1999/xlink">
    <defs>
        <polygon id="path-1" points="0.2405 0.4756 7.08 0.4756 7.08 3.9506 0.2405 3.9506"></polygon>
    </defs>
    <g id="logo/project-mark" stroke="none" stroke-width="1" fill="none" fill-rule="evenodd">
        <g id="Master-Project-Mark">
            <path d="M38.791,81.9759 C38.818,74.8269 44.622,69.0449 51.771,69.0449 L51.771,56.0649 L0,56.0649 L0,69.0449 C7.149,69.0449 12.953,74.8269 12.98,81.9759 C12.953,89.1239 7.149,94.9059 0,94.9059 L0,107.8859 L51.731,107.8859 L51.731,94.9059 C44.597,94.8839 38.818,89.1099 38.791,81.9759" id="Fill-1" fill="#05BFE0"></path>
            <path d="M81.9746,25.8611 C81.9696,11.5771 70.3886,0.0001 56.1046,0.0001 L56.1046,51.7321 C70.3886,51.7321 81.9696,40.1551 81.9746,25.8711 C81.9806,40.1511 93.5556,51.7261 107.8356,51.7321 L107.8356,0.0001 C93.5526,0.0001 81.9746,11.5781 81.9746,25.8611" id="Fill-3" fill="#FF610F"></path>
            <path d="M33.9482,25.8611 L9.6952,25.8611 L9.6952,9.6951 L33.9482,9.6951 C38.4122,9.8531 41.9042,13.5981 41.7462,18.0621 C41.5972,22.3061 38.1922,25.7121 33.9482,25.8611 M35.5662,0.0801 C35.0262,0.0001 34.4872,0.0001 33.9482,0.0001 L0.0002,0.0001 L0.0002,51.7321 L9.6952,51.7321 L9.6952,35.5661 L33.9482,35.5661 C34.4872,35.5661 35.0262,35.5661 35.5662,35.4861 C45.3432,34.6161 52.5642,25.9861 51.6942,16.2091 C50.9312,7.6371 44.1372,0.8421 35.5662,0.0801" id="Fill-5" fill="#000000"></path>
            <polygon id="Fill-7" fill="#4F17A8" points="56.1143 107.8362 56.1143 93.1982 70.7523 107.8362"></polygon>
            <polygon id="Fill-9" fill="#4F17A8" points="85.6094 107.8362 56.1144 78.3312 56.1144 63.4642 100.4764 107.8362"></polygon>
            <polygon id="Fill-11" fill="#4F17A8" points="107.8359 56.1145 107.8359 70.5835 93.3569 56.1145"></polygon>
            <polygon id="Fill-13" fill="#4F17A8" points="107.8359 100.3177 63.6229 56.1147 78.4899 56.1147 107.8359 85.4507"></polygon>
            <g id="Group-17" transform="translate(111.000000, 103.886000)">
                <mask id="mask-2" fill="white">
                    <use xlink:href="#path-1"></use>
                </mask>
                <g id="Clip-16"></g>
                <path d="M3.1465,0.4756 L3.8945,0.4756 L5.1235,3.2416 L6.3215,0.4756 L7.0805,0.4756 L7.0805,3.9506 L6.5415,3.9506 L6.5415,1.2636 L5.3735,3.9506 L4.8235,3.9506 L3.6555,1.2636 L3.6555,3.9506 L3.1165,3.9506 L3.1465,0.4756 Z M1.2395,0.9546 L0.2405,0.9546 L0.2405,0.4756 L2.8265,0.4756 L2.8265,0.9546 L1.8285,0.9546 L1.8285,3.9506 L1.2895,3.9506 L1.2395,0.9546 Z" id="Fill-15" fill="#000000" mask="url(#mask-2)"></path>
            </g>
        </g>
    </g>
</svg>